<svg xmlns="http://www.w3.org/2000/svg" xmlns:xlink="http://www.w3.org/1999/xlink" width="312"
  height="312" fill="none" xmlns:v="https://vecta.io/nano">
  <path
    d="M86.377 180.875c-4.321 13.444-33.227 37.316-51.136 50.581-2.391 1.771-2.146 5.45.481 6.846L74.674 259l34.664 19.516c6.47 3.642 14.655 1.607 19.124-4.322 14.439-19.154 41.305-48.715 73.985-67.452 39.795-22.816-25.425-66.546-63.009-85.56 13.265 1.327 21.224 12.602 31.173 13.265s15.255-5.305 13.265-17.244-37.806-38.469-55.714-32.499c-25.203 9.285-44.437 33.825-47.091 44.438s11.275 33.162 5.306 51.733z"
    fill="url(#C)" />
  <use xlink:href="#J" fill="#eee5ff" />
  <path
    d="M273.701 198.055c-33.139 11.626-59.01 40.302-66.419 49.382-23.895-89.178-90.506-132.763-120.824-143.407 15.753-10.401 48.322-34.921 71.578-58.319 23.217 50.771 101.375 134.887 115.665 152.344z"
    fill="url(#D)" fill-opacity=".24" style="mix-blend-mode:multiply" />
  <use xlink:href="#J" fill="url(#E)" fill-opacity=".08" style="mix-blend-mode:multiply" />
  <use xlink:href="#K" fill="#d3bdff" />
  <ellipse cx="168.35" cy="130.371" rx="13.935" ry="30.51" transform="rotate(333.02 168.35 130.371)"
    fill="#7f3dff" />
  <use xlink:href="#K" fill="url(#F)" fill-opacity=".64" style="mix-blend-mode:overlay" />
  <use xlink:href="#K" fill="url(#G)" fill-opacity=".64" style="mix-blend-mode:soft-light" />
  <path
    d="M184.658 74.006c-10.517.481-22.814 12.752-30.05 21.798-1.187 1.483-1.78 2.225-2.349 3.362a13.94 13.94 0 0 0-1.068 3.192c-.23 1.25-.202 2.245-.144 4.233.445 15.407 4.873 49.679 44.961 64.61h0c2.108.785 3.161 1.178 4.709 1.331 1.165.116 2.958-.016 4.094-.3 1.508-.377 2.572-.961 4.698-2.131h0c10.017-5.508 28.03-16.605 27.489-24.922-.747-11.503-36.638-71.892-52.34-71.173z"
    fill="#fee3c8" />
  <path
    d="M184.658 74.006c-10.517.481-22.814 12.752-30.05 21.798-1.188 1.484-1.781 2.226-2.35 3.363-.434.868-.892 2.237-1.068 3.193-.23 1.25-.201 2.243-.144 4.23.44 15.124 4.778 48.318 43.649 64.675 2.204.927 3.306 1.39 4.924 1.599 1.225.157 3.095.059 4.297-.225 1.588-.376 2.721-1 4.989-2.247 10.345-5.69 28.63-16.952 28.093-25.214-.747-11.503-36.638-71.892-52.34-71.173z"
    fill="url(#H)" fill-opacity=".64" style="mix-blend-mode:multiply" />
  <g style="mix-blend-mode:overlay" filter="url(#A)">
    <path
      d="M184.658 74.006c-10.517.481-22.814 12.752-30.05 21.798-1.163 1.454-1.745 2.181-2.319 3.338-.431.87-.898 2.293-1.066 3.25-.224 1.272-.185 2.25-.106 4.205.711 17.656 5.988 48.766 43.56 64.644 2.215.936 3.323 1.404 4.945 1.614 1.229.16 3.098.063 4.304-.222 1.591-.376 2.729-1.002 5.005-2.254h0c10.351-5.695 28.604-16.945 28.067-25.2-.747-11.503-36.638-71.892-52.34-71.173z"
      fill="url(#I)" fill-opacity=".4" />
  </g>
  <path
    d="M228.01 131c-7.923 9.018-27.015 27.844-40 31m26-49c-8.517 9.018-29.041 27.844-43 31m29-52c-8.121 9.018-27.69 27.844-41 31"
    stroke="#ffcf99" stroke-width="2" stroke-linecap="round" />
  <g filter="url(#B)">
    <path
      d="M82.376 181.035C77.601 195.892 51.476 220.061 34.673 232l50.356-23.772 28.191-21.634c15.883-12.19 18.763-35.001 6.406-50.756a5.26 5.26 0 0 1 1.914-8.011l13.897-6.485c13.265 1.326 21.224 12.602 31.173 13.265s15.254-5.306 13.265-17.245-37.806-38.468-55.714-32.499c-25.203 9.285-44.438 33.826-47.091 44.438s11.275 33.163 5.306 51.734z"
      fill="#fee3c8" />
  </g>
  <defs>
    <filter id="A" x="151.055" y="66" width="93.955" height="106.932" filterUnits="userSpaceOnUse"
      color-interpolation-filters="sRGB">
      <feFlood flood-opacity="0" />
      <feBlend in="SourceGraphic" result="B" />
      <feColorMatrix in="SourceAlpha" values="0 0 0 0 0 0 0 0 0 0 0 0 0 0 0 0 0 0 127 0" result="C" />
      <feOffset dx="8" dy="-8" />
      <feGaussianBlur stdDeviation="8" />
      <feComposite in2="C" operator="arithmetic" k2="-1" k3="1" />
      <feColorMatrix values="0 0 0 0 0 0 0 0 0 0 0 0 0 0 0 0 0 0 0.08 0" />
      <feBlend in2="B" />
    </filter>
    <filter id="B" x="26.673" y="84" width="153.615" height="156" filterUnits="userSpaceOnUse"
      color-interpolation-filters="sRGB">
      <feFlood flood-opacity="0" />
      <feBlend in="SourceGraphic" result="B" />
      <feColorMatrix in="SourceAlpha" values="0 0 0 0 0 0 0 0 0 0 0 0 0 0 0 0 0 0 127 0" result="C" />
      <feOffset dx="-11" dy="10" />
      <feGaussianBlur stdDeviation="4" />
      <feComposite in2="C" operator="arithmetic" k2="-1" k3="1" />
      <feColorMatrix values="0 0 0 0 1 0 0 0 0 1 0 0 0 0 1 0 0 0 0.24 0" />
      <feBlend in2="B" />
    </filter>
    <linearGradient id="C" x1="200.456" y1="115.876" x2="129.488" y2="202.762" xlink:href="#L">
      <stop stop-color="#f9cc9f" />
      <stop offset="1" stop-color="#fee3c8" />
    </linearGradient>
    <linearGradient id="D" x1="94.173" y1="68" x2="271.673" y2="238" xlink:href="#L">
      <stop stop-color="#6f20ff" stop-opacity="0" />
      <stop offset="0" stop-color="#6f20ff" stop-opacity="0" />
      <stop offset=".385" stop-color="#5b18d3" stop-opacity=".64" />
      <stop offset=".656" stop-color="#421396" stop-opacity=".64" />
      <stop offset="1" stop-color="#6e20ff" stop-opacity="0" />
    </linearGradient>
    <linearGradient id="E" x1="102.295" y1="91.999" x2="260.812" y2="214.701" xlink:href="#L">
      <stop stop-opacity=".66" />
      <stop offset=".651" stop-opacity=".67" />
      <stop offset="1" stop-opacity=".04" />
    </linearGradient>
    <linearGradient id="F" x1="96.673" y1="56" x2="239.673" y2="201" xlink:href="#L">
      <stop stop-color="#5600ff" />
      <stop offset="1" stop-color="#5600ff" stop-opacity=".64" />
    </linearGradient>
    <linearGradient id="G" x1="116.223" y1="131.794" x2="201.119" y2="125.162" xlink:href="#L">
      <stop stop-color="#fff" />
      <stop offset=".349" stop-color="#e3e3e3" stop-opacity=".64" />
      <stop offset=".583" stop-color="#636363" stop-opacity=".32" />
      <stop offset=".979" stop-color="#fff" stop-opacity=".32" />
    </linearGradient>
    <linearGradient id="H" x1="221.691" y1="108.195" x2="167.167" y2="155.83" xlink:href="#L">
      <stop stop-color="#f9db9f" />
      <stop offset=".531" stop-color="#fee3c8" />
      <stop offset="1" stop-color="#f9db9f" />
    </linearGradient>
    <linearGradient id="I" x1="221.296" y1="96.293" x2="166.672" y2="152.358" xlink:href="#L">
      <stop stop-color="#fff" stop-opacity=".964" />
      <stop offset="1" stop-color="#fff" stop-opacity="0" />
    </linearGradient>
    <path id="J"
      d="M272.793 198.055c-33.14 11.626-59.011 40.302-66.42 49.382-23.895-89.178-90.506-132.763-120.824-143.407 15.753-10.401 48.322-34.921 71.578-58.319 23.218 50.771 101.375 134.887 115.666 152.344z" />
    <path id="K"
      d="M239.588 204.752c-35.02 2.653-67.431 23.656-76.937 30.51 0-92.325-53.061-151.664-79.591-169.793 17.908-5.969 55.714-21.224 84.233-37.805 9.286 55.05 63.01 156.527 72.295 177.088z" />
    <linearGradient id="L" gradientUnits="userSpaceOnUse" />
  </defs>
</svg>